<svg xmlns="http://www.w3.org/2000/svg" viewBox="0 0 64 64">
  <defs>
    <linearGradient id="bg" x1="0%" y1="0%" x2="100%" y2="100%">
      <stop offset="0%" stop-color="#153b24" />
      <stop offset="100%" stop-color="#2f8f4e" />
    </linearGradient>
    <linearGradient id="leaf" x1="0%" y1="0%" x2="100%" y2="100%">
      <stop offset="0%" stop-color="#d8ff8b" />
      <stop offset="100%" stop-color="#62c85b" />
    </linearGradient>
    <linearGradient id="drop" x1="0%" y1="0%" x2="100%" y2="100%">
      <stop offset="0%" stop-color="#c7fff7" />
      <stop offset="100%" stop-color="#5fd6c9" />
    </linearGradient>
  </defs>
  <rect x="4" y="4" width="56" height="56" rx="16" fill="url(#bg)" />
  <path
    d="M32 49c-1.7 0-3-1.3-3-3V34.7c-4.6 1.6-9.2.6-12.5-2.7-3.2-3.2-4.3-7.8-2.9-12.3.2-.8 1.1-1.3 1.9-1.1 5 1.2 9.5 3.6 12.9 7.1.3-5.1 2.7-10 6.9-13.9.6-.6 1.7-.6 2.3 0 4.2 3.9 6.6 8.8 6.9 13.9 3.4-3.5 7.9-5.9 12.9-7.1.8-.2 1.7.3 1.9 1.1 1.4 4.5.3 9.1-2.9 12.3-3.3 3.3-7.9 4.3-12.5 2.7V46c0 1.7-1.3 3-3 3Z"
    fill="url(#leaf)"
  />
  <path
    d="M24.5 44.5c0-4.7 5.8-10.3 7-11.4.3-.3.8-.3 1.1 0 1.2 1.1 7 6.7 7 11.4 0 4-3.4 7.2-7.6 7.2s-7.5-3.2-7.5-7.2Z"
    fill="url(#drop)"
  />
</svg>
